<?xml version="1.0" encoding="utf-8"?>
<!-- Generator: Adobe Illustrator 26.1.0, SVG Export Plug-In . SVG Version: 6.00 Build 0)  -->
<svg version="1.1" id="Layer_1" xmlns="http://www.w3.org/2000/svg" xmlns:xlink="http://www.w3.org/1999/xlink" x="0px" y="0px"
	 viewBox="0 0 142.6 65.5" style="enable-background:new 0 0 142.6 65.5;" xml:space="preserve">
<style type="text/css">
	.st0{fill:#006EB6;}
	.st1{fill:#FFFFFF;}
</style>
<g>
	<polygon class="st0" points="15.2,7.7 15.5,5.2 16.2,0 19.3,0 17.7,13.3 14.7,13.3 10.5,5.6 10.2,8 9.5,13.3 6.4,13.3 8,0 11,0 	
		"/>
	<path class="st0" d="M21.5,13.3L23.1,0h5c3.8,0,5.7,1.6,5.7,5.2c0,5.1-2.5,8.1-7.3,8.1H21.5z M26.8,10.5c2.9,0,3.8-2.2,3.8-4.8
		c0-1.8-0.7-2.8-2.8-2.8H26l-1,7.6H26.8z"/>
	<polygon class="st0" points="42.1,13.3 38.9,13.3 40.2,2.8 36.5,2.8 36.9,0 47.3,0 47,2.8 43.3,2.8 	"/>
	<polygon class="st0" points="52,10.5 58,10.5 57.7,13.3 48.5,13.3 50.1,0 53.3,0 	"/>
	<path class="st1" d="M7.4,39.3H3.6l2.7-21.8h6c2.9,0,5.1,1.1,5.1,5.2c0,7.2-3.5,8.8-6.7,8.8H8.3L7.4,39.3z M10.7,28.1
		c1.6,0,2.8-1.2,2.8-5c0-1.7-0.6-2.3-1.9-2.3h-2l-0.9,7.3C8.7,28.1,10.7,28.1,10.7,28.1z"/>
	<path class="st1" d="M21.5,39.3h-3.8l2.7-21.8h6.2c2.8,0,5.2,0.7,5.2,4.9c0,5.2-1.9,7.4-3.6,8.2l2.2,8.7h-4.3L24.4,31h-1.9
		L21.5,39.3z M24.9,27.6c1.6,0,3-0.8,3-4.5c0-1.9-0.9-2.2-2.2-2.2h-1.8l-0.8,6.7C23.1,27.6,24.9,27.6,24.9,27.6z"/>
	<path class="st1" d="M33.1,32.5c0-8,1.8-15.3,8.3-15.3c4.1,0,5.6,2.4,5.6,7.1c0,8-1.7,15.3-8.3,15.3C34.5,39.6,33.1,37.2,33.1,32.5
		 M43.2,24.3c0-2.7-0.6-3.9-2.2-3.9c-3.1,0-4.1,7.1-4.1,12c0,2.7,0.6,3.9,2.2,3.9C42.1,36.3,43.2,29.1,43.2,24.3"/>
	<path class="st1" d="M52,39.3h-3.8l2.7-21.8h6c2.9,0,5.1,1.1,5.1,5.2c0,7.2-3.5,8.8-6.7,8.8H53L52,39.3z M55.4,28.1
		c1.6,0,2.8-1.2,2.8-5c0-1.7-0.6-2.3-1.9-2.3h-2l-0.9,7.3C53.4,28.1,55.4,28.1,55.4,28.1z"/>
	<path class="st1" d="M71.5,33.5l2-16h3.8l-2,16.2c-0.5,4.1-1.8,6-6.8,6s-5.9-2-5.4-6l2-16.2h3.8l-2,16c-0.3,2,0,2.9,2,2.9
		C70.8,36.3,71.2,35.4,71.5,33.5"/>
	<polygon class="st1" points="81.9,35.9 87.8,35.9 87.4,39.3 77.7,39.3 80.4,17.4 84.2,17.4 	"/>
	<path class="st1" d="M98.7,32.6c0-1.7-1-2.2-3.1-2.8c-2.3-0.6-4.4-1.5-4.4-5c0-5.2,2.3-7.7,7.1-7.7c4.2,0,5.4,1.9,5,5.9l-3.8,1.3
		c0.2-1.5,0.5-3.8-1.7-3.8c-1.6,0-2.7,1.1-2.7,3.8c0,1.5,0.8,2,2.7,2.4c2.8,0.6,4.7,1.5,4.7,5.1c0,5.9-2.9,8-7.5,8
		c-4.8,0-5.7-2.2-5.3-6l3.8-1.3c-0.2,1.7-0.4,3.9,2.1,3.9C97.6,36.3,98.7,35.3,98.7,32.6"/>
	<polygon class="st1" points="108.2,39.3 104.4,39.3 107,17.4 110.8,17.4 	"/>
	<path class="st1" d="M112.1,32.5c0-8,1.8-15.3,8.3-15.3c4.1,0,5.6,2.4,5.6,7.1c0,8-1.7,15.3-8.3,15.3
		C113.5,39.6,112.1,37.2,112.1,32.5 M122.2,24.3c0-2.7-0.6-3.9-2.2-3.9c-3.1,0-4.1,7.1-4.1,12c0,2.7,0.6,3.9,2.2,3.9
		C121.1,36.3,122.2,29.1,122.2,24.3"/>
	<polygon class="st1" points="136.2,26.4 137.4,31.9 138,26.6 139.1,17.4 142.6,17.4 140,39.3 135.8,39.3 133.6,30.3 132.5,24.8 
		131.9,30.1 130.8,39.3 127.2,39.3 129.9,17.4 134.1,17.4 	"/>
	<path class="st1" d="M27.4,65h-3.8l2.7-21.8h6c2.9,0,5.1,1.1,5.1,5.2c0,7.2-3.5,8.8-6.7,8.8h-2.3L27.4,65z M30.8,53.8
		c1.6,0,2.8-1.2,2.8-5c0-1.7-0.6-2.3-1.9-2.3h-2l-0.9,7.3H30.8z"/>
	<path class="st1" d="M38.6,58.2c0-8,1.8-15.3,8.3-15.3c4.1,0,5.6,2.4,5.6,7.1c0,8-1.7,15.3-8.3,15.3C40.1,65.3,38.6,62.9,38.6,58.2
		 M48.7,50c0-2.7-0.6-3.9-2.2-3.9c-3.1,0-4.1,7.1-4.1,12c0,2.7,0.6,3.9,2.2,3.9C47.7,62,48.7,54.9,48.7,50"/>
	<polygon class="st1" points="64.2,48.7 60.1,65.2 54.9,65.2 55.5,43.2 59,43.2 58.4,59.9 62.7,43.2 67,43.2 67.3,59.9 70.7,43.2 
		74.3,43.2 69.4,65.2 64.3,65.2 	"/>
	<polygon class="st1" points="87,43.2 86.6,46.6 80,46.6 79.3,52.2 84.8,52.2 84.4,55.5 78.9,55.5 78.2,61.6 85.1,61.6 84.7,65 
		74,65 76.7,43.2 	"/>
	<path class="st1" d="M90.9,65H87l2.7-21.8h6.2c2.8,0,5.2,0.7,5.2,4.9c0,5.2-1.9,7.4-3.6,8.2l2.2,8.7h-4.3l-1.5-8.3H92L90.9,65z
		 M94.2,53.3c1.6,0,3-0.8,3-4.5c0-1.9-0.9-2.2-2.2-2.2h-1.8l-0.8,6.7H94.2z"/>
	<path class="st1" d="M3.1,45.4v-2.2h11.2v3.1c-1.5,0-4.6-0.1-6.2-0.3c1.5,3.3,3.9,8,5.3,10.5c0.5-0.6,1.1-2.3,1.4-4.4l3.5,0.6
		c-0.5,2.7-1.6,5-3.1,7c1.4,2.5,2.5,4.2,3.2,5.4h-5.1l-1.1-1.9c-1.7,1.3-3.2,2.4-5.7,2.4c-4.2,0-6.6-3-6.6-6.7c0-3.3,2.4-6.4,6-7.3
		L3.1,45.4z M7.5,54.2c-1.9,0.8-3,2.2-3,4c0,2,1.6,3.6,3.3,3.6c1.3,0,2-0.6,3-1.5L7.5,54.2z"/>
</g>
</svg>
